<!DOCTYPE svg PUBLIC "-//W3C//DTD SVG 1.1//EN" "http://www.w3.org/Graphics/SVG/1.1/DTD/svg11.dtd">
<!-- Created with Vectornator (http://vectornator.io/) -->
<svg stroke-miterlimit="10" style="fill-rule:nonzero;clip-rule:evenodd;stroke-linecap:round;stroke-linejoin:round;" version="1.1" viewBox="0 0 352.503 308.156" xml:space="preserve" xmlns="http://www.w3.org/2000/svg" xmlns:vectornator="http://vectornator.io" xmlns:xlink="http://www.w3.org/1999/xlink">
<defs/>
<g id="Capa-1" vectornator:layerName="Capa 1">
<path d="M13.7664 92.1617L233.029 92.1617L233.029 294.363L13.7664 294.363L13.7664 92.1617Z" fill="#f6eada" fill-rule="nonzero" opacity="1" stroke="#402217" stroke-linecap="butt" stroke-linejoin="round" stroke-width="10" vectornator:layerName="Rectángulo 4"/>
<path d="M233.029 92.1617L338.305 40.6131L338.305 242.088L233.029 294.363L233.029 92.1617Z" fill="#f6eada" fill-rule="nonzero" opacity="1" stroke="#402217" stroke-linecap="butt" stroke-linejoin="round" stroke-width="10" vectornator:layerName="Rectángulo 5"/>
<path d="M78.8374 64.5723L130.023 40.6131L338.032 40.6131L275.956 72.1957L233.12 92.1617L13.4941 92.1617L78.8374 64.5723Z" fill="#f6eada" fill-rule="nonzero" opacity="1" stroke="#402217" stroke-linecap="butt" stroke-linejoin="round" stroke-width="10" vectornator:layerName="Rectángulo 6"/>
<path d="M91.4523 92.1617L155.343 92.1617L153.943 297.047L91.4523 297.047L91.4523 92.1617Z" fill="#f85f26" fill-rule="nonzero" opacity="1" stroke="#9d3f1b" stroke-linecap="butt" stroke-linejoin="round" stroke-width="7.4503" vectornator:layerName="Rectángulo 1"/>
<path d="M270.602 75.4628L305.815 58.0379L305.815 260.186L272.441 277.057L270.602 75.4628Z" fill="#f85f26" fill-rule="nonzero" opacity="1" stroke="#9d3f1b" stroke-linecap="butt" stroke-linejoin="round" stroke-width="7.4503" vectornator:layerName="Rectángulo 2"/>
<path d="M199.586 38.8611L270.602 38.6109L155.343 92.1617L91.4523 92.1617L199.586 38.8611Z" fill="#f85f26" fill-rule="nonzero" opacity="1" stroke="#9d3f1b" stroke-linecap="butt" stroke-linejoin="round" stroke-width="7.4503" vectornator:layerName="Rectángulo 3"/>
<path d="M91.4523 56.498L305.815 58.0379L270.602 76.3704L45.712 76.4892L91.4523 56.498Z" fill="#f85f26" fill-rule="nonzero" opacity="1" stroke="#9d3f1b" stroke-linecap="butt" stroke-linejoin="round" stroke-width="7.4503" vectornator:layerName="Rectángulo 9"/>
<path d="M57.1208 12.8429C84.5287 11.887 146.238 38.9178 146.238 38.9178L146.238 70.0342C146.238 70.0342 71.0774 85.2845 43.6695 78.4613C16.2616 71.6382 33.2436 59.1462 36.6064 42.7416C39.9693 26.337 29.713 13.7988 57.1208 12.8429Z" fill="#f85f26" fill-rule="nonzero" opacity="1" stroke="#9d3f1b" stroke-linecap="butt" stroke-linejoin="round" stroke-width="7.4503" vectornator:layerName="Rectángulo 12"/>
<path d="M273.569 15.1845C246.162 14.1507 181.027 42.8673 181.027 42.8673C181.027 42.8673 171.334 49.6325 169.331 58.0379C167.329 66.4434 173.018 76.4892 173.018 76.4892C173.018 76.4892 259.613 93.525 287.021 86.1462C314.429 78.7674 297.447 65.2582 294.084 47.5178C290.721 29.7774 300.977 16.2182 273.569 15.1845Z" fill="#f85f26" fill-rule="nonzero" opacity="1" stroke="#9d3f1b" stroke-linecap="butt" stroke-linejoin="round" stroke-width="7.4503" vectornator:layerName="Rectángulo 10"/>
<path d="M138.864 58.9313C139.157 42.3589 154.414 29.1554 166.247 29.1554C172.88 29.1554 179.065 34.1726 181.027 40.6131C182.566 45.6639 176.49 52.312 175.763 56.498C174.653 62.8978 175.425 64.0503 175.763 67.8625C175.929 69.7223 178.795 73.8742 175.763 76.4892C170.96 80.6314 163.882 78.4613 159.701 78.4613C147.867 78.4613 138.667 70.0342 138.864 58.9313Z" fill="#f85f26" fill-rule="nonzero" opacity="1" stroke="#9d3f1b" stroke-linecap="butt" stroke-linejoin="round" stroke-width="7.4503" vectornator:layerName="Óvalo 1"/>
</g>
</svg>
