
<svg
   width="153.35132mm"
   height="36.067616mm"
   viewBox="0 0 153.35132 36.067616"
   version="1.1"
   id="svg1"
   inkscape:export-filename="new-year.component.svg"
   inkscape:export-xdpi="96"
   inkscape:export-ydpi="96"
   xmlns:inkscape="http://www.inkscape.org/namespaces/inkscape"
   xmlns="http://www.w3.org/2000/svg"
   xmlns:svg="http://www.w3.org/2000/svg">
  <defs
     id="defs1" />
  <g
     inkscape:label="Capa 1"
     inkscape:groupmode="layer"
     id="layer1"
     transform="translate(-1.2789934,-2.6858861)">
    <path
       style="fill:#da2015;stroke:#7e0000;stroke-width:1.37953;stroke-opacity:1"
       d="m 147.22891,169.09827 c 0,1.792 -0.832,3.328 -2.496,4.608 -1.664,1.28 -4.864,2.432 -9.6,3.456 l -5.376,1.152 c -1.664,0.256 -3.328,0.576 -4.992,0.96 -1.28,4.864 -2.624,9.6 -4.032,14.208 -1.28,4.608 -2.496,9.024 -3.648,13.248 -1.152,4.224 -2.24,8.128 -3.264,11.712 -1.024,3.456 -1.856,6.464 -2.496,9.024 -3.328,-0.384 -6.4,-1.024 -9.216,-1.92 -2.816003,-0.768 -5.120004,-1.856 -6.912004,-3.264 -1.792,-1.408 -3.008,-3.136 -3.648,-5.184 -0.64,-2.048 -0.384,-4.544 0.768,-7.488 l 8.064004,-23.04 c -5.376003,1.792 -10.624004,3.52 -15.744004,5.184 -4.992,1.536 -10.24,2.88 -15.744,4.032 0.384,-2.304 0.96,-4.352 1.728,-6.144 0.768,-1.92 1.92,-3.648 3.456,-5.184 1.664,-1.664 3.84,-3.136 6.528,-4.416 2.816,-1.28 6.464,-2.432 10.944,-3.456 2.176,-0.512 4.352,-0.96 6.528,-1.344 2.304004,-0.512 4.544004,-0.96 6.720004,-1.344 2.432,-6.784 4.8,-13.504 7.104,-20.16 2.432,-6.784 4.736,-12.864 6.912,-18.24 -10.368,1.664 -19.072001,4.224 -26.112004,7.68 -7.04,3.456 -12.544,7.232 -16.512,11.328 -3.968,3.968 -6.464,7.936 -7.488,11.904 -1.024,3.84 -0.768,7.04 0.768,9.6 -5.632,-0.512 -10.112,-1.664 -13.44,-3.456 -3.328,-1.792 -5.76,-3.84 -7.296,-6.144 -1.536,-2.304 -2.176,-4.736 -1.92,-7.296 0.128,-2.56 0.96,-4.8 2.496,-6.72 3.2,-3.968 8.448,-8 15.744,-12.096 7.168,-4.096 15.808,-7.552 25.92,-10.368 10.112004,-2.944 21.312004,-4.8 33.600004,-5.568 12.288,-0.896 25.152,-0.128 38.592,2.304 6.528,1.408 11.072,3.072 13.632,4.992 2.56,1.92 4.032,3.84 4.416,5.76 -10.368,-1.792 -19.968,-2.88 -28.8,-3.264 -8.704,-0.512 -16.704,-0.448 -24,0.192 2.56,1.28 4.16,2.88 4.8,4.8 0.768,1.92 0.96,3.712 0.576,5.376 l -6.72,26.112 c 4.864,-0.64 9.088,-1.088 12.672,-1.344 3.584,-0.256 6.08,-0.32 7.488,-0.192 z m 30.14415,50.88 c -1.408,0.768 -3.392,1.344 -5.952,1.728 -2.56,0.384 -5.248,0.32 -8.064,-0.192 -2.688,-0.384 -5.312,-1.408 -7.872,-3.072 -2.56,-1.664 -4.48,-4.224 -5.76,-7.68 -1.664,-4.48 -1.792,-9.536 -0.384,-15.168 1.408,-5.76 3.968,-11.008 7.68,-15.744 3.712,-4.864 8.384,-8.768 14.016,-11.712 5.76,-2.944 12.096,-3.968 19.008,-3.072 4.352,0.64 7.232,1.984 8.64,4.032 1.408,1.92 2.24,3.52 2.496,4.8 0.512,3.328 -0.448,6.656 -2.88,9.984 -2.304,3.2 -5.312,6.016 -9.024,8.448 -3.712,2.432 -7.808,4.224 -12.288,5.376 -4.352,1.024 -8.32,1.088 -11.904,0.192 -1.024,4.48 -1.152,8.192 -0.384,11.136 0.768,2.688 2.048,4.48 3.84,5.376 1.92,0.768 4.096,0.832 6.528,0.192 2.56,-0.64 5.248,-1.856 8.064,-3.648 2.944,-1.92 5.824,-4.16 8.64,-6.72 2.56,-2.304 5.12,-5.12 7.68,-8.448 2.56,-3.328 5.12,-6.592 7.68,-9.792 0,0.128 0.192,0.448 0.576,0.96 0.384,0.384 0.704,0.96 0.96,1.728 0.256,0.768 0.256,1.664 0,2.688 -0.128,1.024 -0.64,2.112 -1.536,3.264 -5.12,6.272 -9.92,11.392 -14.4,15.36 -4.48,3.968 -9.6,7.296 -15.36,9.984 z m 7.104,-50.88 c -1.92,0.64 -3.776,1.792 -5.568,3.456 -1.792,1.664 -3.52,3.648 -5.184,5.952 -1.664,2.304 -3.136,4.864 -4.416,7.68 -1.28,2.688 -2.368,5.376 -3.264,8.064 2.688,-0.768 5.44,-1.984 8.256,-3.648 2.816,-1.664 5.312,-3.456 7.488,-5.376 2.304,-2.048 4.096,-4.16 5.376,-6.336 1.28,-2.176 1.856,-4.224 1.728,-6.144 0,-0.896 -0.256,-1.856 -0.768,-2.88 -0.384,-1.152 -1.6,-1.408 -3.648,-0.768 z m 19.87193,20.42822 c 0.83849,-3.02201 1.70253,-6.21911 2.59211,-9.29222 1.536,-4.864 3.008,-9.536 4.416,-14.016 1.408,-4.48 2.752,-8.576 4.032,-12.288 1.408,-3.84 2.624,-7.04 3.648,-9.6 0.64,-1.536 1.792,-2.56 3.456,-3.072 1.664,-0.512 3.328,-0.704 4.992,-0.576 1.664,0 3.072,0.256 4.224,0.768 1.28,0.512 1.856,1.024 1.728,1.536 l -17.856,63.168 c -0.896,3.584 -0.832,5.312 0.192,5.184 1.024,-0.128 2.624,-1.408 4.8,-3.84 2.304,-2.432 4.992,-5.568 8.064,-9.408 3.2,-3.968 6.4,-8 9.6,-12.096 0,0.128 0.192,0.448 0.576,0.96 0.384,0.384 0.704,0.96 0.96,1.728 0.256,0.768 0.256,1.664 0,2.688 -0.128,1.024 -0.64,2.112 -1.536,3.264 -2.56,3.072 -4.8,5.824 -6.72,8.256 -1.92,2.304 -3.776,4.416 -5.568,6.336 -1.792,1.92 -3.648,3.712 -5.568,5.376 -1.792,1.664 -3.904,3.328 -6.336,4.992 -1.28,1.024 -2.816,1.6 -4.608,1.728 -1.792,0.128 -3.456,-0.064 -4.992,-0.576 -1.536,-0.512 -2.816,-1.344 -3.84,-2.496 -1.152,-1.152 -1.664,-2.496 -1.536,-4.032 0.256,-2.944 0.704,-6.016 1.344,-9.216 0.21936,-1.09682 0.46129,-2.07418 0.72576,-3.23115 m 49.96236,-49.37685 c 1.024,-1.792 2.688,-3.008 4.992,-3.648 2.304,-0.64 4.544,-0.576 6.72,0.192 2.176,0.896 3.52,2.24 4.032,4.032 0.64,1.792 0.384,3.584 -0.768,5.376 -1.152,1.792 -2.88,3.008 -5.184,3.648 -2.304,0.64 -4.48,0.576 -6.528,-0.192 -2.176,-0.896 -3.584,-2.24 -4.224,-4.032 -0.512,-1.792 -0.192,-3.584 0.96,-5.376 z m -17.01247,38.85077 c 2.688,-7.936 5.55647,-15.17077 8.75647,-22.33877 0.768,-1.536 1.984,-2.56 3.648,-3.072 1.664,-0.512 3.328,-0.704 4.992,-0.576 1.664,0 3.072,0.256 4.224,0.768 1.28,0.512 1.856,1.024 1.728,1.536 l -11.52,38.592 c -0.896,3.584 -0.832,5.312 0.192,5.184 1.024,-0.128 2.624,-1.408 4.8,-3.84 2.304,-2.432 4.992,-5.568 8.064,-9.408 3.072,-3.968 6.208,-8 9.408,-12.096 0,0.29029 1.88915,3.07456 1.63644,5.82919 -0.0457,0.49761 -0.11736,-0.0287 -0.33006,0.53361 -0.19607,0.51833 -0.52988,1.03127 -1.13547,1.89266 -2.56,3.072 -4.97091,6.20854 -6.89091,8.64054 -1.92,2.304 -3.776,4.416 -5.568,6.336 -1.664,1.92 -3.456,3.712 -5.376,5.376 -1.92,1.664 -4.096,3.328 -6.528,4.992 -1.28,1.024 -2.816,1.6 -4.608,1.728 -1.792,0.128 -3.456,-0.064 -4.992,-0.576 -1.536,-0.512 -2.816,-1.344 -3.84,-2.496 -1.024,-1.152 -1.472,-2.496 -1.344,-4.032 0.17246,-3.27681 0.63772,-6.99801 1.27493,-10.3781 m 33.81899,-12.8322 c 0.36813,-0.62575 0.86574,-1.0808 1.386,-1.7497 l 2.81193,-3.77602 3.90807,-5.24798 c -2.048,0 -3.584,-0.192 -4.608,-0.576 -0.896,-0.512 -1.6,-1.408 -2.112,-2.688 -0.384,-1.408 -0.256,-3.072 0.384,-4.992 0.768,-2.048 1.856,-3.968 3.264,-5.76 1.408,-1.92 2.944,-3.52 4.608,-4.8 1.664,-1.408 3.264,-2.112 4.8,-2.112 1.792,0 3.2,0.512 4.224,1.536 1.152,0.896 1.792,2.048 1.92,3.456 0.256,1.28 0.064,2.688 -0.576,4.224 -0.64,1.408 -1.728,2.688 -3.264,3.84 1.792,0.128 3.392,-0.128 4.8,-0.768 1.408,-0.768 2.816,-1.6 4.224,-2.496 1.408,-1.024 2.88,-1.92 4.416,-2.688 1.664,-0.768 3.584,-1.216 5.76,-1.344 6.784,-0.384 10.176,2.496 10.176,8.64 0.128,1.536 -0.448,3.968 -1.728,7.296 -1.28,3.2 -3.136,6.592 -5.568,10.176 -2.432,3.584 -5.44,6.912 -9.024,9.984 -3.456,3.072 -7.36,5.248 -11.712,6.528 5.504,0.768 9.984,2.368 13.44,4.8 5.376,-4.864 10.816,-10.88 16.32,-18.048 l 6.912,-9.024 c 0,0.128 0.128,0.448 0.384,0.96 0.384,0.512 0.704,1.152 0.96,1.92 0.256,0.768 0.32,1.664 0.192,2.688 -0.128,1.024 -0.64,2.112 -1.536,3.264 l -1.92,2.496 c -2.944,4.352 -5.888,8.128 -8.832,11.328 -2.944,3.2 -5.696,5.952 -8.256,8.256 2.304,3.072 3.52,6.528 3.648,10.368 0.128,3.84 -0.64,7.424 -2.304,10.752 -1.664,3.328 -4.16,6.144 -7.488,8.448 -3.2,2.432 -6.912,3.712 -11.136,3.84 -1.792,0 -3.584,-0.256 -5.376,-0.768 -1.792,-0.512 -3.456,-1.28 -4.992,-2.304 -1.536,-0.896 -2.816,-2.048 -3.84,-3.456 -1.024,-1.28 -1.728,-2.688 -2.112,-4.224 -0.512,-1.92 -0.064,-3.776 1.344,-5.568 1.408,-1.792 3.584,-3.584 6.528,-5.376 4.736,-2.816 9.152,-5.696 13.248,-8.64 -1.92,-2.816 -4.992,-5.056 -9.216,-6.72 -4.096,-1.792 -9.728,-2.368 -16.896,-1.728 0.64,-1.664 1.6,-3.072 2.88,-4.224 1.28,-1.28 3.328,-2.432 6.144,-3.456 3.968,-1.536 7.424,-3.52 10.368,-5.952 2.944,-2.56 5.44,-5.12 7.488,-7.68 2.048,-2.688 3.584,-5.184 4.608,-7.488 1.152,-2.432 1.856,-4.288 2.112,-5.568 0.256,-1.408 0.192,-2.496 -0.192,-3.264 -0.384,-0.896 -1.408,-0.832 -3.072,0.192 -3.968,2.56 -7.936,4.416 -11.904,5.568 L 265.7356,197.706 m 10.70954,45.31227 c 2.304,0.256 4.352,-0.128 6.144,-1.152 1.92,-1.024 3.52,-2.496 4.8,-4.416 1.28,-1.792 2.112,-3.84 2.496,-6.144 0.512,-2.304 0.512,-4.608 0,-6.912 -2.048,1.408 -3.904,2.56 -5.568,3.456 -1.664,1.024 -3.008,1.984 -4.032,2.88 -2.176,1.792 -4.032,3.392 -5.568,4.8 -1.408,1.408 -2.048,2.688 -1.92,3.84 0,2.176 1.216,3.392 3.648,3.648 z m 71.23193,-33.984 c 0.384,-2.304 0.96,-4.352 1.728,-6.144 0.768,-1.92 1.92,-3.648 3.456,-5.184 1.536,-1.664 3.648,-3.136 6.336,-4.416 2.816,-1.28 6.464,-2.432 10.944,-3.456 l 8.832,-1.92 c 4.096,-7.808 8.896,-15.36 14.4,-22.656 5.632,-7.296 11.776,-13.824 18.432,-19.584 6.784,-5.76 14.016,-10.368 21.696,-13.824 7.68,-3.584 15.68,-5.504 24,-5.76 7.296,0 12.992,1.28 17.088,3.84 4.224,2.56 7.168,6.272 8.832,11.136 1.024,3.328 1.024,8.192 0,14.592 -0.896,6.4 -2.368,13.632 -4.416,21.696 -1.92,8.064 -4.224,16.512 -6.912,25.344 -2.56,8.832 -4.992,17.28 -7.296,25.344 -3.328,-0.384 -6.4,-1.024 -9.216,-1.92 -2.688,-0.768 -4.992,-1.856 -6.912,-3.264 -1.792,-1.408 -3.008,-3.136 -3.648,-5.184 -0.512,-2.048 -0.256,-4.544 0.768,-7.488 1.408,-3.456 2.88,-7.04 4.416,-10.752 1.536,-3.84 3.008,-7.68 4.416,-11.52 -10.24,0.512 -20.096,1.6 -29.568,3.264 -9.344,1.536 -18.496,3.392 -27.456,5.568 -2.56,6.144 -4.736,11.968 -6.528,17.472 -1.792,5.504 -3.072,10.304 -3.84,14.4 -5.12,0.256 -9.024,-0.32 -11.712,-1.728 -2.688,-1.28 -4.544,-2.88 -5.568,-4.8 -1.024,-1.92 -1.472,-3.904 -1.344,-5.952 0.128,-2.176 0.384,-3.968 0.768,-5.376 0.384,-1.28 0.768,-2.496 1.152,-3.648 l 1.536,-3.84 -12.288,3.072 c -4.096,0.896 -8.128,1.792 -12.096,2.688 z m 113.088,-76.032 c -5.888,-0.128 -11.52,1.216 -16.896,4.032 -5.376,2.816 -10.496,6.592 -15.36,11.328 -4.864,4.736 -9.408,10.176 -13.632,16.32 -4.096,6.144 -7.808,12.48 -11.136,19.008 3.968,-0.512 8,-0.96 12.096,-1.344 4.096,-0.512 8.32,-0.896 12.672,-1.152 4.352,-0.256 8.896,-0.448 13.632,-0.576 4.736,-0.256 9.856,-0.384 15.36,-0.384 2.304,-6.016 4.352,-11.84 6.144,-17.472 1.792,-5.632 3.008,-10.624 3.648,-14.976 0.64,-4.48 0.448,-8 -0.576,-10.56 -0.896,-2.688 -2.88,-4.096 -5.952,-4.224 z m 44.92809,56.64 c 3.712,-4.736 6.912,-8.704 9.6,-11.904 2.816,-3.2 5.248,-5.76 7.296,-7.68 2.176,-1.92 4.032,-3.2 5.568,-3.84 1.536,-0.768 2.944,-1.152 4.224,-1.152 3.968,0 6.336,1.792 7.104,5.376 0.384,1.408 0.448,3.072 0.192,4.992 -0.256,1.92 -0.768,4.288 -1.536,7.104 -0.768,2.688 -1.792,5.952 -3.072,9.792 -1.152,3.84 -2.496,8.448 -4.032,13.824 -0.896,3.584 -0.832,5.312 0.192,5.184 1.024,-0.128 2.624,-1.408 4.8,-3.84 2.304,-2.432 4.992,-5.568 8.064,-9.408 3.2,-3.968 6.4,-8 9.6,-12.096 0,0.128 0.192,0.448 0.576,0.96 0.384,0.384 0.704,0.96 0.96,1.728 0.256,0.768 0.256,1.664 0,2.688 -0.128,1.024 -0.64,2.112 -1.536,3.264 -2.56,3.072 -4.8,5.824 -6.72,8.256 -1.92,2.304 -3.776,4.416 -5.568,6.336 -1.792,1.92 -3.648,3.712 -5.568,5.376 -1.792,1.664 -3.904,3.328 -6.336,4.992 -1.408,1.024 -3.008,1.6 -4.8,1.728 -1.664,0.128 -3.328,-0.064 -4.992,-0.576 -1.536,-0.512 -2.88,-1.344 -4.032,-2.496 -1.024,-1.152 -1.472,-2.496 -1.344,-4.032 0.256,-4.096 0.96,-8.512 2.112,-13.248 1.28,-4.864 2.816,-9.92 4.608,-15.168 0.512,-1.664 0.384,-2.688 -0.384,-3.072 -0.64,-0.384 -1.664,0.128 -3.072,1.536 -2.048,2.048 -4.544,4.736 -7.488,8.064 -2.816,3.328 -5.312,6.4 -7.488,9.216 l -1.92,7.296 c -1.536,5.632 -3.2,9.152 -4.992,10.56 -1.792,1.408 -4.16,2.048 -7.104,1.92 -1.92,-0.128 -3.392,-0.768 -4.416,-1.92 -1.152,-1.152 -1.472,-2.816 -0.96,-4.992 0.64,-3.072 1.408,-6.464 2.304,-10.176 0.896,-3.84 1.92,-7.808 3.072,-11.904 1.28,-4.096 2.624,-8.128 4.032,-12.096 1.408,-4.096 2.944,-8 4.608,-11.712 0.64,-1.536 1.728,-2.56 3.264,-3.072 1.664,-0.64 3.328,-0.896 4.992,-0.768 1.792,0.128 3.264,0.448 4.416,0.96 1.28,0.512 1.856,1.024 1.728,1.536 z m 6.72,-41.088 c 2.944,0.384 5.696,1.024 8.256,1.92 2.688,0.768 5.184,1.408 7.488,1.92 2.432,0.512 4.672,0.64 6.72,0.384 2.176,-0.384 4.224,-1.536 6.144,-3.456 0,2.048 -0.384,3.776 -1.152,5.184 -0.64,1.408 -1.536,2.56 -2.688,3.456 -1.152,0.768 -2.432,1.344 -3.84,1.728 -1.408,0.384 -2.88,0.512 -4.416,0.384 -2.688,-0.128 -5.12,-0.576 -7.296,-1.344 -2.176,-0.896 -4.352,-1.6 -6.528,-2.112 -2.048,-0.512 -4.224,-0.704 -6.528,-0.576 -2.176,0.128 -4.672,1.024 -7.488,2.688 -0.128,-1.792 0.128,-3.328 0.768,-4.608 0.64,-1.408 1.536,-2.496 2.688,-3.264 1.152,-0.896 2.432,-1.472 3.84,-1.728 1.408,-0.384 2.752,-0.576 4.032,-0.576 z m 36.86234,43.07704 c 1.95898,-4.56903 3.52161,-7.94104 6.72161,-12.16504 3.328,-4.224 7.424,-7.744 12.288,-10.56 4.864,-2.816 10.368,-4.224 16.512,-4.224 4.736,0 8.32,1.216 10.752,3.648 2.432,2.304 3.904,5.312 4.416,9.024 0.512,3.712 0.128,7.808 -1.152,12.288 -1.152,4.48 -3.008,8.768 -5.568,12.864 1.792,0 3.648,-0.64 5.568,-1.92 1.92,-1.408 3.712,-3.008 5.376,-4.8 1.664,-1.792 3.2,-3.584 4.608,-5.376 1.408,-1.92 2.56,-3.392 3.456,-4.416 0,0.128 0.128,0.448 0.384,0.96 0.384,0.384 0.64,0.96 0.768,1.728 0.256,0.768 0.32,1.664 0.192,2.688 -0.128,1.024 -0.64,2.112 -1.536,3.264 -0.64,0.64 -1.152,1.28 -1.536,1.92 -0.384,0.64 -0.832,1.28 -1.344,1.92 -1.536,1.792 -3.136,3.392 -4.8,4.8 -1.536,1.28 -2.944,2.24 -4.224,2.88 -4.224,2.176 -8.192,3.2 -11.904,3.072 -3.2,3.712 -6.848,6.72 -10.944,9.024 -4.096,2.304 -8.576,3.456 -13.44,3.456 -5.12,0 -9.024,-1.408 -11.712,-4.224 -2.688,-2.816 -5.43175,-10.11171 -5.33681,-14.36556 m 19.73681,12.06156 c 1.792,0 3.584,-1.024 5.376,-3.072 1.792,-2.048 3.584,-4.544 5.376,-7.488 -1.92,-1.92 -3.264,-4.352 -4.032,-7.296 -0.384,-1.664 -0.32,-3.072 0.192,-4.224 0.64,-1.28 1.472,-2.24 2.496,-2.88 1.152,-0.768 2.368,-1.152 3.648,-1.152 1.408,0 2.624,0.384 3.648,1.152 0.896,-2.816 1.6,-5.504 2.112,-8.064 0.64,-2.56 1.024,-4.864 1.152,-6.912 0.128,-2.048 -0.064,-3.648 -0.576,-4.8 -0.384,-1.28 -1.088,-1.92 -2.112,-1.92 -2.304,0 -4.672,1.152 -7.104,3.456 -2.432,2.304 -4.672,5.184 -6.72,8.64 -1.92,3.456 -3.648,7.232 -5.184,11.328 -1.408,3.968 -2.368,7.68 -2.88,11.136 -0.384,3.456 -0.256,6.336 0.384,8.64 0.64,2.304 2.048,3.456 4.224,3.456 z"
       id="text2"
       aria-label="Feliz Año"
       transform="matrix(0.26458333,0,0,0.26458333,-9.3328868,-28.798003)" />
  </g>
</svg>
