<!DOCTYPE svg PUBLIC "-//W3C//DTD SVG 1.1//EN" "http://www.w3.org/Graphics/SVG/1.1/DTD/svg11.dtd">
<!-- Created with Vectornator (http://vectornator.io/) -->
<svg stroke-miterlimit="10" style="fill-rule:nonzero;clip-rule:evenodd;stroke-linecap:round;stroke-linejoin:round;" version="1.1" viewBox="0 0 448.274 532.818" xml:space="preserve" xmlns="http://www.w3.org/2000/svg" xmlns:vectornator="http://vectornator.io" xmlns:xlink="http://www.w3.org/1999/xlink">
<defs/>
<g id="Capa-1" vectornator:layerName="Capa 1">
<path d="M191.44 435.118L220.249 420.318L250.2 432.646L243.834 513.941L187.126 513.941L191.44 435.118Z" fill="#6f3a1a" fill-rule="nonzero" opacity="1" stroke="#402217" stroke-linecap="butt" stroke-linejoin="round" stroke-width="10" vectornator:layerName="Rectángulo 2"/>
<path d="M246.81 85.8797C246.81 85.8797 253.476 113.563 267.647 141.177C281.819 168.79 303.494 196.333 303.494 196.333L271.697 191.485C271.697 191.485 275.799 208.672 294.55 232.026C313.301 255.38 346.701 284.902 346.701 284.902L289.617 271.648C289.617 271.648 302.268 294.504 328.344 319.117C354.42 343.73 393.922 370.101 393.922 370.101L334.503 370.598C334.503 370.598 333.558 385.771 354.364 401.814C375.169 417.857 417.724 434.77 417.724 434.77C417.724 434.77 383.841 440.051 355.353 438.828C326.865 437.606 303.774 429.88 303.774 429.88L330.85 451.912C330.85 451.912 286.284 441.44 258.208 433.454C230.132 425.468 218.545 419.969 218.545 419.969C218.545 419.969 199.948 428.095 172.411 434.684C144.874 441.273 108.398 446.327 108.398 446.327L145.17 420.986C145.17 420.986 118.414 431.148 86.9632 435.805C55.5122 440.463 19.3663 439.616 19.3663 439.616C19.3663 439.616 57.7231 417.125 77.2842 399.199C96.8452 381.274 97.6106 367.914 97.6106 367.914L45.321 378.351C45.321 378.351 92.2601 345.181 114.88 323.329C137.499 301.477 135.8 290.945 135.8 290.945L85.5834 299.209C85.5834 299.209 125.391 266.517 147.229 240.823C169.067 215.13 172.935 196.436 172.935 196.436L139.538 201.284C139.538 201.284 181.466 172.933 208.283 144.082C235.101 115.231 246.81 85.8797 246.81 85.8797Z" fill="#6a884e" fill-rule="nonzero" opacity="1" stroke="#436557" stroke-linecap="butt" stroke-linejoin="round" stroke-width="10" vectornator:layerName="Rectángulo 1"/>
</g>
<g id="Capa-2" vectornator:layerName="Capa 2">
<path d="M95.7927 374.492C99.698 373.705 105.245 366.067 125.997 362.431C129.625 359.211 136.822 351.84 165.077 346.792C170.459 341.773 194.541 328.35 212.397 324.668C218.083 320.507 230.479 308.835 250.046 304.333C268.221 292.991 283.972 287.98 286.76 286.67C295.128 282.09 309.689 285.676 317.25 292.876C324.811 300.075 332.019 310.972 312.683 317.793C311.304 319.693 290.117 322.967 279.92 329.588C266.364 333.03 252.084 341.873 245.928 345.674C239.787 347.43 212.397 361.836 189.393 366.807C183.219 372.1 160.968 386.912 139.029 390.118C128.337 398.059 108.341 409.777 86.7144 411.894C71.275 421.763 59.0719 422.602 49.1745 416.281C58.2209 397.085 68.7181 389.025 95.7927 374.492Z" fill="#ec0014" fill-rule="nonzero" opacity="1" stroke="#952f2f" stroke-linecap="butt" stroke-linejoin="round" stroke-width="10" vectornator:layerName="Rectángulo 2"/>
<path d="M147.358 288.046C150.021 287.517 158.562 280.101 172.71 277.657C175.184 275.492 181.192 262.63 200.457 259.236C204.126 255.862 213.874 241.538 226.049 239.063C229.925 236.266 231.997 223.4 245.338 220.374C257.729 212.748 263.901 202.776 265.802 201.895C271.507 198.817 281.434 201.228 286.589 206.068C291.744 210.908 301.878 222.195 288.695 226.781C287.755 228.059 283.423 237.655 276.471 242.106C267.229 244.42 256.282 258.001 252.084 260.557C247.898 261.737 234.229 281.288 218.545 284.629C214.336 288.188 195.37 297.668 180.413 299.823C173.123 305.161 160.805 314.057 146.061 315.481C135.534 322.115 122.803 326.456 116.055 322.207C122.223 309.301 128.899 297.817 147.358 288.046Z" fill="#ec0014" fill-rule="nonzero" opacity="1" stroke="#952f2f" stroke-linecap="butt" stroke-linejoin="round" stroke-width="10" vectornator:layerName="Rectángulo 1"/>
<path d="M236.138 105.783C236.138 105.783 191.39 119.898 187.751 110.719C186.499 107.56 229.542 88.2903 226.158 85.8797C212.316 76.0207 186.676 69.4381 187.126 58.3138C187.287 54.3247 236.802 61.47 237.439 57.7649C240.545 39.7036 250.356 20.0807 252.71 20.5932C254.818 21.0524 263.497 39.7892 264.262 56.1828C264.481 60.8579 317.701 54.8814 317.527 59.9641C317.194 69.6841 287.133 75.4381 276 85.8797C271.872 89.7511 307.146 107.925 305.464 112.02C300.804 123.364 258.428 106.159 258.428 106.159L269.465 137.215C269.465 137.215 256.585 147.456 242.318 147.666C228.051 147.876 212.397 138.056 212.397 138.056L236.138 105.783Z" fill="#fddf19" fill-rule="nonzero" opacity="1" stroke="#f2b63c" stroke-linecap="butt" stroke-linejoin="round" stroke-width="10" vectornator:layerName="Rectángulo 3"/>
<g opacity="1" vectornator:layerName="Grupo 2">
<path d="M136.696 315.096C138.386 303.738 130.514 293.155 119.114 291.459C107.713 289.763 97.1015 297.595 95.4116 308.953C93.7217 320.311 101.594 330.893 112.994 332.59C124.394 334.286 135.006 326.454 136.696 315.096Z" fill="#fddf19" fill-rule="nonzero" opacity="1" stroke="#f2b63c" stroke-linecap="butt" stroke-linejoin="round" stroke-width="2.9047" vectornator:layerName="Óvalo 1"/>
<path d="M125.631 286.576L112.545 284.629L111.693 290.355L124.779 292.302L125.631 286.576Z" fill="#f2b63c" fill-rule="nonzero" opacity="1" stroke="#f2b63c" stroke-linecap="butt" stroke-linejoin="round" stroke-width="2.9047" vectornator:layerName="Rectángulo 4"/>
<path d="M133.691 319.747C133.691 319.747 129.404 318.743 125.187 314.015C120.97 309.286 123 304.381 116.85 300.642C110.701 296.902 100.587 299.057 100.587 299.057L95.7075 306.964C95.7075 306.964 105.077 303.806 110.724 307.245C116.371 310.684 113.516 315.787 118.295 320.721C123.073 325.655 129.837 326.98 129.837 326.98L133.691 319.747Z" fill="#f2b63c" fill-rule="nonzero" opacity="1" stroke="#f2b63c" stroke-linecap="butt" stroke-linejoin="round" stroke-width="2.9047" vectornator:layerName="Rectángulo 5"/>
</g>
<g opacity="1" vectornator:layerName="Grupo 3">
<path d="M116.055 423.212C116.055 411.729 125.399 402.421 136.924 402.421C148.45 402.421 157.794 411.729 157.794 423.212C157.794 434.695 148.45 444.004 136.924 444.004C125.399 444.004 116.055 434.695 116.055 423.212Z" fill="#bd4cf4" fill-rule="nonzero" opacity="1" stroke="#5d2192" stroke-linecap="butt" stroke-linejoin="round" stroke-width="2.9047" vectornator:layerName="Óvalo 1"/>
<path d="M131.197 396.632L144.427 396.632L144.427 402.421L131.197 402.421L131.197 396.632Z" fill="#5d2192" fill-rule="nonzero" opacity="1" stroke="#5d2192" stroke-linecap="butt" stroke-linejoin="round" stroke-width="2.9047" vectornator:layerName="Rectángulo 4"/>
<path d="M118.343 428.255C118.343 428.255 122.731 427.893 127.598 423.837C132.465 419.781 131.178 414.63 137.812 411.836C144.445 409.042 154.131 412.663 154.131 412.663L157.794 421.201C157.794 421.201 148.991 416.698 142.899 419.269C136.808 421.84 138.88 427.308 133.428 431.485C127.976 435.662 121.09 435.977 121.09 435.977L118.343 428.255Z" fill="#5d2192" fill-rule="nonzero" opacity="1" stroke="#5d2192" stroke-linecap="butt" stroke-linejoin="round" stroke-width="2.9047" vectornator:layerName="Rectángulo 5"/>
</g>
<g opacity="1" vectornator:layerName="Grupo 4">
<path d="M310.693 271.349C308.164 260.148 296.999 253.126 285.756 255.664C274.514 258.203 267.45 269.341 269.979 280.542C272.508 291.742 283.672 298.765 294.915 296.226C306.158 293.688 313.222 282.55 310.693 271.349Z" fill="#073651" fill-rule="nonzero" opacity="1" stroke="#3395ff" stroke-linecap="butt" stroke-linejoin="round" stroke-width="2.9047" vectornator:layerName="Óvalo 1"/>
<path d="M290.177 247.982L277.272 250.896L278.547 256.543L291.452 253.629L290.177 247.982Z" fill="#3395ff" fill-rule="nonzero" opacity="1" stroke="#3395ff" stroke-linecap="butt" stroke-linejoin="round" stroke-width="2.9047" vectornator:layerName="Rectángulo 4"/>
<path d="M309.571 276.772C309.571 276.772 305.212 277.385 299.571 274.5C293.93 271.616 294.05 266.308 286.965 265.044C279.879 263.78 271.228 269.444 271.228 269.444L269.536 278.58C269.536 278.58 277.131 272.249 283.639 273.415C290.147 274.581 289.33 280.371 295.568 283.245C301.806 286.118 308.592 284.909 308.592 284.909L309.571 276.772Z" fill="#3395ff" fill-rule="nonzero" opacity="1" stroke="#3395ff" stroke-linecap="butt" stroke-linejoin="round" stroke-width="2.9047" vectornator:layerName="Rectángulo 5"/>
</g>
<g opacity="1" vectornator:layerName="Grupo 5">
<path d="M247.36 399.526C247.36 388.043 256.704 378.734 268.23 378.734C279.756 378.734 289.099 388.043 289.099 399.526C289.099 411.009 279.756 420.318 268.23 420.318C256.704 420.318 247.36 411.009 247.36 399.526Z" fill="#e94420" fill-rule="nonzero" opacity="1" stroke="#9d3f1b" stroke-linecap="butt" stroke-linejoin="round" stroke-width="2.9047" vectornator:layerName="Óvalo 1"/>
<path d="M262.502 372.945L275.732 372.945L275.732 378.734L262.502 378.734L262.502 372.945Z" fill="#9d3f1b" fill-rule="nonzero" opacity="1" stroke="#9d3f1b" stroke-linecap="butt" stroke-linejoin="round" stroke-width="2.9047" vectornator:layerName="Rectángulo 4"/>
<path d="M249.648 404.569C249.648 404.569 254.036 404.207 258.903 400.151C263.77 396.094 262.484 390.943 269.117 388.15C275.75 385.356 285.436 388.977 285.436 388.977L289.099 397.515C289.099 397.515 280.296 393.012 274.205 395.583C268.113 398.154 270.186 403.622 264.733 407.799C259.281 411.975 252.395 412.291 252.395 412.291L249.648 404.569Z" fill="#9d3f1b" fill-rule="nonzero" opacity="1" stroke="#9d3f1b" stroke-linecap="butt" stroke-linejoin="round" stroke-width="2.9047" vectornator:layerName="Rectángulo 5"/>
</g>
<g opacity="1" vectornator:layerName="Grupo 6">
<path d="M166.051 224.127C167.673 212.759 178.238 204.864 189.648 206.492C201.058 208.12 208.993 218.656 207.371 230.023C205.749 241.391 195.184 249.287 183.774 247.658C172.363 246.03 164.429 235.495 166.051 224.127Z" fill="#f5891d" fill-rule="nonzero" opacity="1" stroke="#eb493a" stroke-linecap="butt" stroke-linejoin="round" stroke-width="2.9047" vectornator:layerName="Óvalo 1"/>
<path d="M184.795 199.952L197.893 201.821L197.075 207.552L183.978 205.683L184.795 199.952Z" fill="#e94420" fill-rule="nonzero" opacity="1" stroke="#eb493a" stroke-linecap="butt" stroke-linejoin="round" stroke-width="2.9047" vectornator:layerName="Rectángulo 4"/>
<path d="M167.603 229.442C167.603 229.442 171.998 229.704 177.389 226.376C182.781 223.048 182.235 217.767 189.196 215.938C196.158 214.11 205.235 219.062 205.235 219.062L207.655 228.033C207.655 228.033 199.577 222.331 193.183 224.016C186.789 225.7 188.069 231.406 182.081 234.771C176.093 238.136 169.232 237.475 169.232 237.475L167.603 229.442Z" fill="#e94420" fill-rule="nonzero" opacity="1" stroke="#eb493a" stroke-linecap="butt" stroke-linejoin="round" stroke-width="2.9047" vectornator:layerName="Rectángulo 5"/>
</g>
<g opacity="1" vectornator:layerName="Grupo 1">
<path d="M378.565 443.575C377.047 432.193 366.554 424.201 355.13 425.725C343.705 427.249 335.674 437.711 337.192 449.093C338.711 460.475 349.203 468.467 360.628 466.943C372.052 465.419 380.083 454.957 378.565 443.575Z" fill="#fddf19" fill-rule="nonzero" opacity="1" stroke="#f2b63c" stroke-linecap="butt" stroke-linejoin="round" stroke-width="2.9047" vectornator:layerName="Óvalo 1"/>
<path d="M360.042 419.229L346.928 420.979L347.693 426.717L360.807 424.968L360.042 419.229Z" fill="#f2b63c" fill-rule="nonzero" opacity="1" stroke="#f2b63c" stroke-linecap="butt" stroke-linejoin="round" stroke-width="2.9047" vectornator:layerName="Rectángulo 4"/>
<path d="M376.964 448.876C376.964 448.876 372.567 449.097 367.206 445.72C361.845 442.343 362.44 437.067 355.495 435.175C348.551 433.283 339.428 438.152 339.428 438.152L336.927 447.1C336.927 447.1 345.057 441.473 351.435 443.215C357.813 444.958 356.481 450.652 362.438 454.071C368.395 457.491 375.262 456.893 375.262 456.893L376.964 448.876Z" fill="#f2b63c" fill-rule="nonzero" opacity="1" stroke="#f2b63c" stroke-linecap="butt" stroke-linejoin="round" stroke-width="2.9047" vectornator:layerName="Rectángulo 5"/>
</g>
</g>
</svg>
